<svg height="512pt" viewBox="0 -22 512 511" width="512pt" xmlns="http://www.w3.org/2000/svg"><path d="m471.441406 8h-430.882812c-18.257813 0-33.058594 14.800781-33.058594 33.058594v385.90625c0 18.257812 14.800781 33.058594 33.058594 33.058594h430.882812c18.257813 0 33.058594-14.800782 33.058594-33.058594v-385.90625c0-18.257813-14.800781-33.058594-33.058594-33.058594zm0 0" fill="#ff8c57"/><path d="m43.5 426.964844v-385.90625c0-18.257813 14.800781-33.058594 33.058594-33.058594h-36c-18.257813 0-33.058594 14.800781-33.058594 33.058594v385.90625c0 18.257812 14.800781 33.058594 33.058594 33.058594h36c-18.257813 0-33.058594-14.800782-33.058594-33.058594zm0 0" fill="#ec6a34"/><path d="m0 426.964844c0 22.363281 18.195312 40.558594 40.558594 40.558594h316.339844c4.144531 0 7.5-3.359376 7.5-7.5 0-4.140626-3.355469-7.5-7.5-7.5h-93.398438v-98.003907h165.667969v98.003907h-42.269531c-4.140626 0-7.5 3.359374-7.5 7.5 0 4.140624 3.359374 7.5 7.5 7.5h84.542968c22.363282 0 40.558594-18.195313 40.558594-40.558594v-385.90625c0-22.363282-18.195312-40.558594-40.558594-40.558594h-369.542968c-4.140626 0-7.5 3.359375-7.5 7.5s3.359374 7.5 7.5 7.5h33.765624v98.007812h-120.664062v-72.449218c0-14.09375 11.464844-25.558594 25.558594-25.558594h31.339844c4.144531 0 7.5-3.359375 7.5-7.5s-3.355469-7.5-7.5-7.5h-31.339844c-22.363282 0-40.558594 18.195312-40.558594 40.558594zm248.5-298.457032v98.003907h-165.667969v-98.003907zm180.667969 0v98.003907h-165.667969v-98.003907zm67.832031 0v98.003907h-52.832031v-98.003907zm-120.667969 211.011719v-98.007812h120.667969v98.007812zm-225.664062 0v-98.007812h210.667969v98.007812zm-15-98.007812v98.007812h-120.667969v-98.007812zm-120.667969 185.453125v-72.445313h52.832031v98.003907h-27.273437c-14.09375 0-25.558594-11.464844-25.558594-25.558594zm233.5 25.558594h-165.667969v-98.003907h165.667969zm222.941406 0h-27.277344v-98.003907h52.835938v72.445313c0 14.09375-11.464844 25.558594-25.558594 25.558594zm25.558594-411.464844v72.449218h-120.667969v-98.007812h95.109375c14.09375 0 25.558594 11.464844 25.558594 25.558594zm-346.332031-25.558594h210.667969v98.007812h-210.667969zm-82.835938 113.007812v98.003907h-52.832031v-98.003907zm0 0"/><path d="m190.890625 46.476562c-4.140625 0-7.5 3.355469-7.5 7.5v11.78125c0 4.144532 3.359375 7.5 7.5 7.5s7.5-3.355468 7.5-7.5v-11.78125c0-4.144531-3.359375-7.5-7.5-7.5zm0 0"/><path d="m321.109375 73.257812c4.140625 0 7.5-3.355468 7.5-7.5v-11.78125c0-4.144531-3.359375-7.5-7.5-7.5s-7.5 3.355469-7.5 7.5v11.78125c0 4.144532 3.359375 7.5 7.5 7.5zm0 0"/><path d="m277.714844 69.875c2.726562-3.117188 2.410156-7.855469-.710938-10.582031-3.117187-2.726563-7.855468-2.410157-10.582031.710937-2.523437 2.886719-6.324219 4.546875-10.421875 4.546875-4.101562 0-7.898438-1.660156-10.425781-4.546875-2.726563-3.121094-7.460938-3.4375-10.582031-.710937-3.117188 2.726562-3.4375 7.464843-.710938 10.582031 5.375 6.148438 13.289062 9.675781 21.71875 9.675781 8.425781 0 16.34375-3.527343 21.714844-9.675781zm0 0"/></svg>